<svg xmlns="http://www.w3.org/2000/svg" viewBox="0 0 501 363.42"><defs><style>.cls-1,.cls-4{fill:#44233a;}.cls-2,.cls-3{fill:#fe3400;}.cls-2{stroke:#000;stroke-miterlimit:10;}.cls-4{font-size:36px;font-family:StencilStd, Stencil Std;font-weight:700;}.cls-5{letter-spacing:-0.02em;}.cls-6{letter-spacing:-0.02em;}.cls-7{letter-spacing:-0.03em;}</style></defs><title>Asset 5</title><g id="Layer_2" data-name="Layer 2"><g id="Layer_1-2" data-name="Layer 1"><circle class="cls-1" cx="69.01" cy="25.71" r="25.71"/><path class="cls-2" d="M107.8,31.51c-1,.27-2,.61-2.88.88A15.27,15.27,0,0,1,107.8,31.51Z"/><path class="cls-3" d="M48.83,134.08"/><path class="cls-1" d="M154.94,118.8a18.09,18.09,0,0,1-2.69,9.87,111.44,111.44,0,0,1-11.75,14.5L117,168.72c-1,2.31-2.09,4.92-3.2,7.7-2.24,5.62-3.74,10.29-4.63,13.25-.78,2.58-2.44,8.09-4.54,15.15-5.61,18.83-7,23.93-11.7,26.48C90.8,232.41,86,234,82.2,233a28.69,28.69,0,0,1-7.08-3.5,11.92,11.92,0,0,1-4-8.74,15.46,15.46,0,0,1,1-5.26l16.62-52.37a11.62,11.62,0,0,1,2-3.76L90.5,159l24.75-34.5c-.29-.38-.6-10.89-.63-11.37-.62-13.63-8.24-29.83-9-31.11l-2.12-4.39-.34-1-38.1,56.49c-1.39,2-4,3.43-7.55,3.43a18.22,18.22,0,0,1-8.68-2.5c-4.29-2.78-7.58-9.79-4.09-15.06L99.19,36.81a12.68,12.68,0,0,1,5.71-4.41h0c.87-.27,1.83-.61,2.88-.88l.39-.09c4.8-1.13,11.54-.59,20.81,13.38a111.48,111.48,0,0,1,8.5,14.51,152.1,152.1,0,0,1,8.62,21.86c4.26,12.25,3.73,12,5.76,18.25C153.67,105,155.17,112.91,154.94,118.8Z"/><path class="cls-2" d="M146.13,95.79"/><path class="cls-1" d="M152.17,231.5a16.5,16.5,0,0,1-6.42,2.25c-1.11,0-7,.07-11.17-4.41a13.66,13.66,0,0,1-3.08-5.42l-10.75-33.5a57.23,57.23,0,0,1,1.84-6.47c.57-2.32,2.57-7.86,2.57-7.86.94-1.87,14-15.67,13.62-15.69s1.24,3.49,2.16,6.24l17.3,50.86a17.3,17.3,0,0,1-2.58,10.08A16.45,16.45,0,0,1,152.17,231.5Z"/><path class="cls-1" d="M23,232.42l10.58-.06,21.74-86.23a10.85,10.85,0,0,1-4.24-.37,13.8,13.8,0,0,1-4.65-2.19Z"/><path class="cls-3" d="M428.75,193.92c-.07,3.27-3.92,7.09-8.5,10.25-3.61,2.49-18.81,14.44-27.47,20.19-3.85,2.56-8.39,5.23-13.58,8.48,4.7,4,7.36,7.06,7.8,11.29.6,5.64-3.07,10.19-4.5,11.79a170.84,170.84,0,0,1-46.75,8.25c-16.36.58-35-2.44-43.5-4.5a50.51,50.51,0,0,1-6.93-2.46,89,89,0,0,1-7.64,5.54c-4.22,2.74-3.32,1.7-13.68,6.34-7.11,3.18-4.49,2.18-15,5.83A76,76,0,0,1,232.78,278c-3.35.72-13.71.53-19.28-1.06-8.42-2-20.33-9.66-33.25-25-3.45-4.09-3-3.08-7.75-8.5-10.9-11.29-13.37-15.93-11.84-21a8.52,8.52,0,0,1,3.34-4.27c7.4-5.62,21.07-3.64,30.25,3,5.84,4.22,5.81,7.4,13.25,16.75a108,108,0,0,0,12.86,13.57h0c9.76-1.56,15.2-2.14,22.1-5.47,2.39-1.15,7.29-5.59,7.29-5.59l1.6-.48c-27.68-11-48-20.66-55.75-26.64a12.41,12.41,0,0,1-5.43-3,13,13,0,0,1-3.34-5.5,13.8,13.8,0,0,1,.22-7.39s1.36-2.83,1.62-3.15c3.83-4.83,6.16-4.79,11.07-5.92A778.54,778.54,0,0,1,287,173.09c8.5,1.5,12.27,4.28,15.45,10.28l.67,3.53c1.16,6.32-5,15-9.79,15.52L247.88,208c8,3,18.24,6.69,31.12,11.14,1.74.55,4.24,1.34,7.25,2.25,4.11,1.25,8.25,2.45,10,2.92a108.67,108.67,0,0,0,20,3.33l14.33-3.39h0a204.64,204.64,0,0,0,21.91-7.61c18.25-8.75,35.68-24.6,42.36-30a20.83,20.83,0,0,1,9.14-4.55,21.84,21.84,0,0,1,12,1.31C417,183.78,428.88,188.18,428.75,193.92Z"/><path class="cls-3" d="M442.51,255.25a16.27,16.27,0,0,1-3.84,2.16,39.09,39.09,0,0,1-10,2.73c-8.61.91-32.28-4.46-35.51-19.42-.31-1.44-1.15-5.34.85-8.81,4.66-8.07,20.77-7.08,30.75-3.75,9,3,22.42,8.68,22.42,19.42C447.17,249.29,445.53,252.79,442.51,255.25Z"/><path class="cls-3" d="M492.81,258.71c-.82,2.39-3.13,3.53-4.14,4a13.91,13.91,0,0,1-8.33,1c-6-.93-19.12-1.92-37.5-3.17,8.36-1.73,13.78-7.33,13.67-12.67a9.63,9.63,0,0,0-2.67-6.17l27.85,3.48c1.82.47,6.65,2,9.49,6.52C492,253.15,493.77,255.9,492.81,258.71Z"/><text class="cls-4" transform="translate(0 317.34)">P<tspan class="cls-5" x="25.7" y="0">r</tspan><tspan x="53.28" y="0">oject Lo</tspan><tspan class="cls-6" x="231.23" y="0">v</tspan><tspan x="254.95" y="0">e Dese</tspan><tspan class="cls-7" x="387.14" y="0">r</tspan><tspan class="cls-5" x="414.28" y="0">v</tspan><tspan x="438.01" y="0">ed</tspan></text></g></g></svg>