<?xml version="1.0" encoding="UTF-8"?>
<svg width="1280px" height="727px" viewBox="0 0 1280 727" version="1.1" xmlns="http://www.w3.org/2000/svg" xmlns:xlink="http://www.w3.org/1999/xlink">
    <!-- Generator: Sketch 47 (45396) - http://www.bohemiancoding.com/sketch -->
    <title>BG_Image</title>
    <desc>Created with Sketch.</desc>
    <defs></defs>
    <g id="Page-1" stroke="none" stroke-width="1" fill="none" fill-rule="evenodd">
        <g id="Desktop-Copy-5" transform="translate(0.000000, -198.000000)">
            <g id="Group" transform="translate(-63.851562, -47.088681)">
                <g id="BG_Image" transform="translate(2.000000, 245.000000)">
                    <g id="BG" transform="translate(1.000000, 0.000000)">
                        <path d="M337.088408,48.6166003 C343.260536,46.9682185 348.030361,46.9682185 351.397885,48.6166003 C356.449171,51.0891729 349.595573,57.5570881 353.875549,59.2643065 C358.155525,60.9715249 369.087534,54.403294 371.998305,56.8338002 C374.909077,59.2643065 361.66664,66.6792495 366.832473,73.2349706 C371.998305,79.7906916 362.179664,88.339556 364.057199,92.4321726 C365.934734,96.5247892 371.998305,97.0795664 377.771456,97.0795664 C379.243334,97.0795664 381.72568,103.624337 382.740831,99.7003337 C383.833721,95.4758352 383.833721,85.0202599 382.740831,68.3336078 L400.397076,67.5147361 L403.900592,62.0194775 L415.44475,61.020193 L441.060768,70.8044643 L443.695705,145.912805 L448.41788,146.800917 L446.013676,70.8044643 L467.574675,68.3336078 L466.335843,13.1796288 L495.445975,13.1796288 L505.617946,23.6184634 L516.977939,28.4225109 L516.977939,19.6997467 L530.217955,23.6184634 L530.217955,125.583424 L549.039974,125.583424 L549.039974,149.77693 L562.628412,152.207437 L562.502594,84.5164123 L572.964917,83.3011592 C572.964917,80.1016255 572.964917,76.7462293 572.964917,73.2349706 C572.964917,67.9680824 591.588529,56.8338002 597.71736,56.8338002 C603.846191,56.8338002 623.732831,73.5981224 623.094058,75.6868387 C622.796297,76.6604846 620.034395,79.2862095 622.241343,83.5640132 C622.874249,84.790797 625.294182,85.7214282 629.501142,86.3559069 L635.82838,90.0016663 L642.039477,97.0795664 L649.886219,97.0795664 L653.958395,104.034042 L657.674891,142.267046 C662.068208,146.400154 667.065791,148.945639 672.667641,149.903501 C678.269491,150.861363 683.871341,149.793803 689.473191,146.700821 L689.473191,140.054905 C697.184659,139.222815 702.836684,137.681258 706.429266,135.430234 C710.021848,133.179209 715.067653,134.242894 721.566681,138.621286 L718.06311,70.8044643 C723.681295,53.7580672 728.654367,44.8098165 732.982324,43.9597123 C737.310282,43.109608 742.04462,50.1511138 747.185339,65.0842298 L756.074926,31.6172975 L760.488265,43.9597123 L765.615384,31.6172975 C767.416268,39.2050049 769.462673,44.1631646 771.7546,46.4917767 C774.046526,48.8203887 777.577284,49.5286633 782.346874,48.6166003 L789.443543,40.6818517 L795.939673,46.4917767 L795.939673,36.4522011 L803.711887,48.6166003 L803.711887,92.4321726 L811.982058,86.3559069 C809.526977,61.3245404 808.288145,46.7494145 808.265562,42.6305291 C808.242979,38.5116438 810.307699,27.4794239 814.459722,9.53386933 L832.045328,0.922661512 C828.570792,14.4328586 827.202915,22.7893063 827.941698,25.9920047 C828.68048,29.194703 833.064784,28.4035226 841.094609,23.6184634 L835.759405,13.1796288 L852.22474,0.922661512 C856.59653,10.0637565 859.392872,17.464803 860.613764,23.1258008 C861.834657,28.7867986 862.858047,37.2837318 863.683935,48.6166003 L863.683935,67.5147361 L870.815054,62.695498 L873.485709,70.8044643 L877.60402,61.4247444 C880.74078,62.6331596 882.633654,62.4983091 883.282644,61.020193 C883.604427,60.2873121 869.445313,52.136562 877.60402,53.1476906 C883.043158,53.8217763 887.405632,46.6449786 890.69144,31.6172975 L894.942666,48.6166003 L901.405401,56.8338002 C905.100916,58.4364045 907.553577,60.1649636 908.763385,62.0194775 C909.973193,63.8739913 909.973193,67.612489 908.763385,73.2349706 L913.360613,99.7003337 L951.219995,97.0795664 L951.219995,85.7316655 L966.37633,92.4321726 L967.615162,99.5100727 C971.789971,99.4659546 975.930233,101.403354 980.035947,105.322272 C986.194517,111.200649 988.990847,116.760874 991.114256,118.294279 C993.237664,119.827683 998.102042,118.560115 1004.21877,111.596145 C1006.883,108.562891 1005.36663,116.315711 1009.8032,118.294279 C1012.15716,119.344073 1018.99523,122.080753 1018.99523,114.817041 C1018.99523,107.553328 1017.71527,108.071436 1013.51969,99.5100727 C1011.14774,94.6699331 1023.46429,82.9377935 1037.05266,75.1619539 C1047.49974,69.1836884 1059.20516,66.5378152 1062.46807,65.0842298 C1069.97502,61.7399878 1079.19472,65.0842298 1085.39614,67.5147361 C1089.53042,69.1350736 1096.64887,64.3460584 1106.75148,53.1476906 L1111.16482,251.108155 L318.864028,256.320452 L318.864028,48.6166003 L337.088408,48.6166003 Z" id="Path-15" fill="#FE3400"></path>
                        <path d="M0.00399173606,55.0140667 L13.6893713,47.4328009 L34.1088265,55.0140667 L65.4874467,30.6247653 L96.2143822,23.7494913 L113.082156,30.6247653 L120.196381,39.381779 L127.739631,55.0140667 L144.884371,55.0140667 L144.884371,72.1696675 L164.923677,63.6271667 L174.818423,55.0140667 L185.109611,55.0140667 L197.393869,55.0140667 L213.517635,39.381779 L224.965564,39.381779 L231.992898,47.4328009 L237.570233,63.6271667 L248.893255,63.6271667 L260.862532,63.6271667 L273.092482,72.1696675 L273.092482,83.8239629 L283.410824,92.2144039 L299.083842,83.8239629 L309.814917,83.8239629 L325.124078,92.2144039 L336.539422,98.9376182 L343.887168,108.859518 L375.797997,125.146206 L375.797997,135.388518 L375.797997,147.851989 L355.155883,147.851989 L367.36411,163.052535 L384.829261,163.052535 L391.503599,163.052535 L384.829261,173.256832 L391.503599,179.692219 L402.620255,179.692219 L430.631837,203.103993 L430.631837,193.301569 L440.016097,193.301569 L464.209893,209.126646 L464.209893,223.626632 L476.390967,234.477183 L491.091889,240.526989 L516.051415,240.526989 L531.051025,234.477183 L551.573664,234.477183 C552.258497,237.1579 558.534583,237.1579 570.401922,234.477183 C588.20293,230.456107 589.588607,223.626632 599.60826,223.626632 C606.288028,223.626632 612.555063,223.626632 618.409364,223.626632 C627.44078,221.755667 635.228413,219.594246 641.772262,217.142369 C651.588036,213.464553 649.238588,209.126646 657.108577,209.126646 C662.355236,209.126646 667.69543,211.798554 673.12916,217.142369 L687.113228,217.142369 L702.531003,209.126646 L733.524043,209.126646 L761.296674,209.126646 L786.011818,209.126646 L806.681086,193.301569 C812.01841,197.554412 817.47627,200.821887 823.054665,203.103993 C831.422257,206.527153 836.508041,205.516385 845.364006,209.126646 C851.267982,211.533487 855.310238,214.205395 857.490773,217.142369 C861.284065,220.864506 866.367206,220.864506 872.740196,217.142369 C882.29968,211.559163 879.581782,204.361141 881.527078,203.103993 C882.823943,202.265895 887.135923,202.265895 894.46302,203.103993 C901.161531,198.429851 906.416644,195.57532 910.22836,194.5404 C914.040077,193.505481 920.819408,193.092537 930.566355,193.301569 L945.495366,193.301569 L960.571006,179.692219 L974.560505,179.692219 L989.750191,186.187343 L999.699244,193.301569 L1015.6438,179.692219 L1029.87225,186.187343 L1029.87225,173.256832 L1029.87225,163.052535 L1046.5065,154.542619 L1067.13775,135.388518 L1089.73492,135.388518 L1111.09389,125.146206 L1130.81821,132.13824 L1158.41163,108.859518 L1188.87789,92.2144039 L1207.35316,98.9376182 L1224.9758,92.2144039 L1253.56847,98.9376182 L1276.60009,108.859518 L1315.07664,118.721681 L1364.33858,135.388518 L1384.61141,154.542619 L1384.61141,355.245226 L1294.07067,340.598612 L1147.56651,326.804618 L1015.6438,314.851634 L857.490773,303.001833 L814.544748,309.241714 L770.708088,309.241714 L733.524043,309.241714 L692.307699,309.241714 L599.60826,303.001833 L551.573664,303.001833 L476.390967,303.001833 L375.797997,303.001833 L299.083842,303.001833 L185.109611,303.001833 L103.046211,303.001833 L48.5762277,309.241714 L0.00399173606,314.851634 L0.00399173606,55.0140667 Z" id="Path-2" fill="#44233A"></path>
                    </g>
                    <rect id="Rectangle-3" fill="#44233A" x="0.477663919" y="282.742415" width="1386.25296" height="444.22402"></rect>
                </g>
            </g>
        </g>
    </g>
</svg>