<?xml version="1.0" encoding="UTF-8"?>
<svg width="50px" height="50px" viewBox="0 0 50 50" version="1.1" xmlns="http://www.w3.org/2000/svg" xmlns:xlink="http://www.w3.org/1999/xlink">
    <!-- Generator: Sketch 47 (45396) - http://www.bohemiancoding.com/sketch -->
    <title>FB</title>
    <desc>Created with Sketch.</desc>
    <defs></defs>
    <g id="Page-1" stroke="none" stroke-width="1" fill="none" fill-rule="evenodd">
        <g id="Desktop-Copy-5" transform="translate(-987.000000, -959.000000)">
            <g id="FB" transform="translate(987.187820, 959.750000)">
                <path d="M39.3634694,0 L9.84086735,0 C4.42866366,0 0,4.42825363 0,9.84086735 L0,39.3634694 C0,44.7760831 4.42866366,49.2043367 9.84086735,49.2043367 L39.3634694,49.2043367 C44.7764932,49.2043367 49.2043367,44.7760831 49.2043367,39.3634694 L49.2043367,9.84086735 C49.2043367,4.42825363 44.7764932,0 39.3634694,0" id="Fill-1" fill="#43233A"></path>
                <path d="M24.6125833,17.8938268 L24.6125833,22.3870028 L18.2340611,22.3870028 L18.2340611,29.7464681 L24.6125833,29.7464681 L24.6125833,49.2043231 L32.2198471,49.2043231 L32.2198471,29.7464681 L38.6101237,29.7464681 L39.5735719,22.3870028 L32.2198471,22.3870028 L32.2198471,17.8938268 C32.2198471,14.2931628 34.2492526,13.9889159 35.7196422,13.9889159 L39.8271109,13.9889159 L39.8271109,7.34537374 C39.8271109,7.34537374 37.0634673,7.16755473 33.4115488,7.16755473 C28.0701447,7.16755473 24.6125833,10.8787918 24.6125833,17.8938268" id="Fill-3" fill="#FEFEFE"></path>
            </g>
        </g>
    </g>
</svg>