<?xml version="1.0" encoding="UTF-8"?>
<svg width="49px" height="49px" viewBox="0 0 49 49" version="1.1" xmlns="http://www.w3.org/2000/svg" xmlns:xlink="http://www.w3.org/1999/xlink">
    <!-- Generator: Sketch 47 (45396) - http://www.bohemiancoding.com/sketch -->
    <title>Google</title>
    <desc>Created with Sketch.</desc>
    <defs>
        <polygon id="path-1" points="24.1165511 0 0 0 0 48.2331155 24.1165511 48.2331155 48.2331021 48.2331155 48.2331021 0"></polygon>
        <polygon id="path-3" points="1.81577947e-21 0.00344330852 1.81577947e-21 43.2757829 48.2330753 43.2757829 48.2330753 0.00344330852 0 0.00344330852"></polygon>
    </defs>
    <g id="Page-1" stroke="none" stroke-width="1" fill="none" fill-rule="evenodd">
        <g id="Desktop-Copy-5" transform="translate(-1164.000000, -960.000000)">
            <g id="Google" transform="translate(1164.700628, 960.449219)">
                <g id="Group-3">
                    <mask id="mask-2" fill="white">
                        <use xlink:href="#path-1"></use>
                    </mask>
                    <g id="Clip-2"></g>
                    <path d="M38.5870149,0 L9.64660971,0 C4.340967,0 -1.33980876e-05,4.34084642 -1.33980876e-05,9.6466231 L-1.33980876e-05,38.5864924 C-1.33980876e-05,43.8922691 4.340967,48.2331155 9.64660971,48.2331155 L38.5870149,48.2331155 C43.8923897,48.2331155 48.2331021,43.8922691 48.2331021,38.5864924 L48.2331021,9.6466231 C48.2331021,4.34084642 43.8923897,0 38.5870149,0" id="Fill-1" fill="#43233A" mask="url(#mask-2)"></path>
                </g>
                <g id="Group-6" transform="translate(0.000000, 4.957292)">
                    <mask id="mask-4" fill="white">
                        <use xlink:href="#path-3"></use>
                    </mask>
                    <g id="Clip-5"></g>
                    <path d="M41.0499586,8.15216021 L41.0499586,0.969043485 L36.6058129,0.969043485 L36.6058129,8.15216021 L29.4224282,8.15216021 L29.4224282,12.5967078 L36.6058129,12.5967078 L36.6058129,19.7802265 L41.0499586,19.7802265 L41.0499586,12.5967078 L48.2330753,12.5967078 L48.2330753,8.15216021 L41.0499586,8.15216021 Z M15.0867424,22.0156974 C11.7471351,23.4224966 6.29813285,21.3652203 4.38260825,15.3891373 C2.46627978,9.41292026 4.54284938,5.20940424 7.65187562,3.83208083 C11.7180612,2.03043999 15.4604151,5.09364477 17.5104565,10.0975625 C19.5158822,14.9937597 18.4266177,20.6095681 15.0867424,22.0156974 L15.0867424,22.0156974 Z M29.2083268,0.00344330852 L11.2952176,0.00344330852 C6.96468771,0.00344330852 2.53782557,2.10225374 -4.01942629e-05,5.56391764 L-4.01942629e-05,21.4900904 C2.96401874,25.0988654 7.24015239,25.662121 10.5169227,25.5432799 C9.62675374,27.3723868 9.36843861,30.1640124 11.9450248,32.3476327 C8.47853763,31.9790513 3.98146951,32.4540135 0.0729793834,34.7894342 C0.269797291,36.4122106 0.87351512,37.9127964 1.778154,39.1877584 C5.99145062,34.3683323 12.1985167,34.391511 15.6495961,35.3829695 C19.3612683,37.8092292 22.2725388,38.7583497 22.8445031,43.2757829 L28.4763893,43.2757829 C29.0858683,35.7268984 23.8941093,32.7652511 19.8346227,29.6874424 C15.3225488,26.2662407 18.2370348,24.3637123 21.3586552,21.7071395 C24.7641811,18.809937 25.6290277,16.1159835 25.6290277,12.3042276 C25.6290277,9.5345749 23.8729403,6.33444166 21.920571,4.47652885 L24.9974418,4.47652885 L29.2083268,0.00344330852 Z" id="Fill-4" fill="#FEFEFE" mask="url(#mask-4)"></path>
                </g>
                <path d="M37.447119,2.1620494 L10.7854606,2.1620494 C5.89850809,2.1620494 1.89877698,6.16097662 1.89877698,11.048733 C1.89877698,16.5036304 6.23640786,21.9109646 24.1132082,21.9109646 C41.9909465,21.9109646 46.3346065,16.4086379 46.3346065,11.048733 C46.3346065,6.16097662 42.3355453,2.1620494 37.447119,2.1620494" id="Fill-7"></path>
            </g>
        </g>
    </g>
</svg>