<?xml version="1.0" encoding="UTF-8"?>
<svg width="35px" height="35px" viewBox="0 0 35 35" version="1.1" xmlns="http://www.w3.org/2000/svg" xmlns:xlink="http://www.w3.org/1999/xlink">
    <!-- Generator: Sketch 47 (45396) - http://www.bohemiancoding.com/sketch -->
    <title>path12423</title>
    <desc>Created with Sketch.</desc>
    <defs></defs>
    <g id="Page-1" stroke="none" stroke-width="1" fill="none" fill-rule="evenodd">
        <g id="Desktop-Copy-5" transform="translate(-1166.000000, -23.000000)" fill-rule="nonzero" fill="#44233A">
            <path d="M1169.87316,26.8668394 C1164.71737,32.0225072 1164.70474,40.4683789 1169.86053,45.6241666 C1174.22877,49.9924002 1180.96514,50.6580672 1186.05492,47.6217603 L1195.15097,56.4665341 C1196.40283,57.6815804 1198.37803,57.6366609 1199.57329,56.3659722 C1200.76868,55.0952873 1200.73734,53.0959046 1199.48536,51.8808583 L1190.52764,43.1994353 C1193.66844,38.0944048 1193.03065,31.2795145 1188.61798,26.8668394 C1183.46219,21.7110535 1175.02883,21.7110535 1169.87316,26.8668394 L1169.87316,26.8668394 L1169.87316,26.8668394 Z M1173.65472,30.6484007 C1176.76466,27.5384632 1181.72636,27.5384632 1184.8363,30.6484007 C1187.94623,33.7583391 1187.94623,38.7200371 1184.8363,41.8299755 C1181.72636,44.9399122 1176.76466,44.9399122 1173.65472,41.8299755 C1170.54478,38.7200371 1170.54478,33.7583391 1173.65472,30.6484007 L1173.65472,30.6484007 Z" id="path12423"></path>
        </g>
    </g>
</svg>