<?xml version="1.0" encoding="UTF-8"?>
<svg width="50px" height="50px" viewBox="0 0 50 50" version="1.1" xmlns="http://www.w3.org/2000/svg" xmlns:xlink="http://www.w3.org/1999/xlink">
    <!-- Generator: Sketch 47 (45396) - http://www.bohemiancoding.com/sketch -->
    <title>Twitter</title>
    <desc>Created with Sketch.</desc>
    <defs></defs>
    <g id="Page-1" stroke="none" stroke-width="1" fill="none" fill-rule="evenodd">
        <g id="Desktop-Copy-5" transform="translate(-1076.000000, -959.000000)">
            <g id="Twitter" transform="translate(1076.944224, 960.000000)">
                <path d="M38.1078737,0.066043949 L9.57688775,0.066043949 C4.34647116,0.066043949 0.0660307402,4.34555976 0.0660307402,9.5763726 L0.0660307402,38.1073586 C0.0660307402,43.3381714 4.34647116,47.6176872 9.57688775,47.6176872 L38.1078737,47.6176872 C43.3385545,47.6176872 47.6182024,43.3381714 47.6182024,38.1073586 L47.6182024,9.5763726 C47.6182024,4.34555976 43.3385545,0.066043949 38.1078737,0.066043949" id="Fill-1" fill="#F0F0F1"></path>
                <path d="M38.1078737,0.066043949 L9.57688775,0.066043949 C4.34647116,0.066043949 0.0660307402,4.34555976 0.0660307402,9.5763726 L0.0660307402,38.1073586 C0.0660307402,43.3381714 4.34647116,47.6176872 9.57688775,47.6176872 L38.1078737,47.6176872 C43.3385545,47.6176872 47.6182024,43.3381714 47.6182024,38.1073586 L47.6182024,9.5763726 C47.6182024,4.34555976 43.3385545,0.066043949 38.1078737,0.066043949 Z" id="Stroke-3" stroke="#43233A"></path>
                <path d="M41.4126469,12.8068463 C40.5876259,13.3930524 39.2589537,13.9426702 37.5452453,13.9426702 C38.7177896,13.4914579 40.1158079,11.7770891 40.7264502,10.0183387 C40.7264502,10.0183387 37.9646244,11.5677298 35.9369431,11.8982137 C34.6142149,10.4617578 32.7183573,9.56091832 30.6114232,9.56091832 C26.6131225,9.56091832 23.3710251,12.8022232 23.3710251,16.8003918 C23.3710251,17.3430089 23.4332385,17.8704359 23.5459094,18.378578 C17.3964253,18.2546796 11.1279299,14.3056477 8.70794751,10.8146966 C6.53364862,14.7715217 8.2867192,18.6447352 10.9601783,20.5197229 C9.6947762,20.5750677 8.39965436,20.1202891 7.72811948,19.5363285 C7.29989052,22.7711611 10.2185047,26.373066 13.34912,26.7023611 C12.4312412,27.1968982 11.0194857,27.0085409 10.2185047,26.8908505 C10.9723303,30.2807543 14.7855759,32.1401557 16.9273811,31.8577518 C14.2438834,34.3528922 9.65422521,35.3888575 6.27237876,34.847033 C10.3681603,37.8604863 18.7314376,39.8867146 26.7825913,35.9143032 C34.6661254,32.024843 37.8516892,23.8851904 37.8516892,16.8003918 C37.8516892,16.7594446 37.8486512,16.717969 37.8486512,16.6766255 C39.1310926,15.7888627 40.8816535,14.0080537 41.4126469,12.8068463" id="Fill-5" fill="#43233A"></path>
                <path d="M41.4126469,12.8068463 C40.5876259,13.3930524 39.2589537,13.9426702 37.5452453,13.9426702 C38.7177896,13.4914579 40.1158079,11.7770891 40.7264502,10.0183387 C40.7264502,10.0183387 37.9646244,11.5677298 35.9369431,11.8982137 C34.6142149,10.4617578 32.7183573,9.56091832 30.6114232,9.56091832 C26.6131225,9.56091832 23.3710251,12.8022232 23.3710251,16.8003918 C23.3710251,17.3430089 23.4332385,17.8704359 23.5459094,18.378578 C17.3964253,18.2546796 11.1279299,14.3056477 8.70794751,10.8146966 C6.53364862,14.7715217 8.2867192,18.6447352 10.9601783,20.5197229 C9.6947762,20.5750677 8.39965436,20.1202891 7.72811948,19.5363285 C7.29989052,22.7711611 10.2185047,26.373066 13.34912,26.7023611 C12.4312412,27.1968982 11.0194857,27.0085409 10.2185047,26.8908505 C10.9723303,30.2807543 14.7855759,32.1401557 16.9273811,31.8577518 C14.2438834,34.3528922 9.65422521,35.3888575 6.27237876,34.847033 C10.3681603,37.8604863 18.7314376,39.8867146 26.7825913,35.9143032 C34.6661254,32.024843 37.8516892,23.8851904 37.8516892,16.8003918 C37.8516892,16.7594446 37.8486512,16.717969 37.8486512,16.6766255 C39.1310926,15.7888627 40.8816535,14.0080537 41.4126469,12.8068463 Z" id="Stroke-7" stroke="#43233A"></path>
                <path d="M36.9848756,2.19754636 L10.6999123,2.19754636 C5.88121366,2.19754636 1.93878617,6.13997385 1.93878617,10.9586725 C1.93878617,16.3364991 6.21433934,21.6674346 23.8385634,21.6674346 C41.4637121,21.6674346 45.7462659,16.2428488 45.7462659,10.9586725 C45.7462659,6.13997385 41.8034421,2.19754636 36.9848756,2.19754636" id="Fill-9"></path>
            </g>
        </g>
    </g>
</svg>